<?xml version="1.0" standalone="no"?>
<!DOCTYPE svg PUBLIC "-//W3C//DTD SVG 20010904//EN"
 "http://www.w3.org/TR/2001/REC-SVG-20010904/DTD/svg10.dtd">
<svg version="1.0" xmlns="http://www.w3.org/2000/svg"
 width="1024.000000pt" height="1024.000000pt" viewBox="0 0 1024.000000 1024.000000"
 preserveAspectRatio="xMidYMid meet">
<metadata>
Created by potrace 1.14, written by Peter Selinger 2001-2017
</metadata>
<g transform="translate(0.000000,1024.000000) scale(0.100000,-0.100000)"
fill="#000000" stroke="none">
<path d="M0 5120 l0 -5120 5120 0 5120 0 0 5120 0 5120 -5120 0 -5120 0 0
-5120z m5530 3050 c427 -33 823 -144 1210 -341 328 -166 547 -324 785 -564
245 -247 393 -443 544 -720 88 -161 93 -189 8 -40 -122 213 -317 483 -339 469
-7 -5 -8 -2 -3 5 9 15 -43 73 -58 64 -6 -3 -7 -1 -3 5 4 7 -13 32 -40 59 -26
27 -38 36 -26 22 23 -26 29 -45 13 -34 -5 3 -12 1 -16 -4 -3 -6 3 -8 15 -6 14
3 20 -1 20 -16 0 -10 3 -19 8 -19 4 0 8 -19 9 -41 0 -23 6 -44 11 -48 5 -3 10
-24 10 -46 1 -22 3 -49 4 -60 2 -14 -3 -21 -19 -23 -19 -3 -20 -6 -11 -21 15
-25 66 -16 71 13 3 17 5 15 12 -12 5 -23 10 -29 16 -21 10 17 23 4 16 -16 -4
-8 -15 -15 -26 -15 -26 0 -31 -20 -13 -49 15 -22 16 -22 23 -5 5 14 7 11 6
-12 0 -19 10 -45 25 -65 28 -37 71 -119 63 -119 -2 0 -11 12 -19 28 -44 85
-221 309 -371 471 -93 99 -226 223 -343 320 -206 169 -598 383 -845 462 -149
48 -521 124 -677 138 -138 13 -437 14 -535 1 -491 -62 -772 -143 -1125 -324
-52 -26 -108 -58 -125 -70 -16 -12 -70 -46 -120 -76 -49 -29 -121 -78 -160
-109 -127 -102 -409 -365 -490 -456 -43 -49 -82 -92 -85 -95 -13 -10 -127
-166 -139 -189 -11 -19 -15 -21 -23 -10 -7 10 -8 8 -3 -7 3 -13 -1 -26 -10
-34 -9 -8 -23 -30 -32 -49 -11 -26 -17 -31 -20 -19 -2 9 -13 20 -24 23 -13 4
-19 15 -19 34 0 24 -5 30 -31 35 -17 3 -40 1 -51 -5 -19 -10 -20 -9 -15 10 3
12 1 19 -4 15 -5 -3 -9 -9 -9 -13 0 -5 -28 -55 -63 -112 -35 -57 -83 -141
-107 -186 -24 -46 -45 -81 -47 -79 -6 6 35 103 89 211 120 240 282 480 458
680 90 101 323 319 426 398 134 101 326 222 476 298 573 290 1152 413 1728
369z m-284 -364 c10 -41 -2 -46 -97 -46 -105 0 -167 -8 -419 -56 -450 -86
-877 -293 -1200 -583 -69 -62 -136 -117 -150 -122 -32 -13 -283 -267 -380
-385 -41 -50 -94 -124 -118 -165 -23 -41 -55 -94 -71 -119 -15 -25 -63 -115
-107 -200 -43 -85 -81 -157 -85 -160 -3 -3 -18 -41 -32 -85 -25 -74 -40 -147
-81 -383 -43 -240 -45 -622 -6 -847 70 -408 212 -790 395 -1070 92 -140 93
-142 56 -114 -17 12 -31 28 -31 34 0 7 -9 20 -21 31 -52 47 -184 273 -244 419
-155 373 -235 742 -235 1080 0 262 16 415 61 597 55 221 78 286 169 462 42 83
84 169 93 191 19 45 107 202 160 285 40 61 193 249 265 323 195 203 568 480
836 622 117 62 333 149 491 198 143 45 537 111 687 115 53 2 58 0 64 -22z
m290 14 c138 -12 345 -41 459 -66 416 -92 883 -345 1242 -672 182 -167 388
-414 500 -602 31 -52 68 -115 83 -140 111 -185 193 -382 250 -604 96 -375 111
-786 44 -1174 -17 -98 -83 -343 -117 -434 -57 -149 -158 -364 -180 -379 -5 -3
-8 -9 -8 -13 3 -19 0 -26 -10 -26 -5 0 -7 6 -3 13 4 6 -2 3 -14 -7 -12 -11
-22 -27 -22 -37 0 -10 -5 -21 -11 -24 -10 -7 -29 -47 -33 -71 -1 -5 -12 -21
-25 -35 -13 -13 -30 -40 -38 -59 -9 -19 -18 -37 -22 -40 -3 -3 -21 -27 -40
-55 -19 -27 -76 -90 -127 -140 -51 -49 -113 -116 -138 -148 -48 -60 -67 -79
-132 -134 -22 -18 -66 -58 -99 -90 -33 -32 -76 -69 -94 -83 -19 -14 -47 -37
-62 -51 -16 -15 -30 -22 -32 -16 -1 5 -25 -6 -52 -25 -135 -95 -515 -291 -590
-303 -22 -4 -75 -18 -118 -32 -43 -14 -80 -23 -83 -21 -6 7 96 44 161 59 67
16 192 74 419 194 176 94 302 178 422 283 167 145 208 184 274 258 224 251
241 272 325 419 32 55 63 107 70 115 22 26 111 204 155 312 247 602 285 1191
114 1796 -39 139 -107 323 -134 362 -10 14 -30 50 -45 80 -66 132 -185 314
-295 451 -190 234 -292 336 -475 474 -260 196 -439 307 -620 384 -55 23 -125
53 -156 67 -83 36 -345 101 -505 125 -76 12 -204 24 -284 28 l-145 6 -3 33
c-3 30 -2 32 31 32 19 0 92 -5 163 -10z m-291 -140 c0 -25 0 -25 -125 -32
-216 -11 -488 -65 -740 -148 -141 -46 -461 -215 -584 -308 -136 -104 -428
-401 -576 -588 -143 -180 -328 -491 -395 -664 -47 -124 -104 -349 -115 -458
-19 -186 -21 -491 -5 -642 29 -284 51 -402 102 -570 47 -154 47 -155 77 -232
14 -38 22 -68 18 -68 -4 0 -2 -4 4 -8 6 -4 37 -56 68 -117 30 -60 82 -155 114
-210 39 -66 56 -104 50 -112 -5 -7 -5 -14 2 -18 5 -3 10 -1 10 6 0 10 3 10 13
0 9 -11 9 -14 0 -18 -10 -3 -10 -10 -2 -26 10 -22 10 -22 -6 -2 -9 11 -28 40
-42 65 -14 25 -50 83 -79 130 -138 223 -266 550 -323 825 -52 253 -73 613 -53
905 18 262 107 568 236 810 76 145 241 386 321 470 39 41 89 104 110 139 105
168 291 337 541 494 311 195 628 311 1009 371 190 30 220 33 305 32 62 -1 65
-2 65 -26z m300 20 c273 -23 582 -87 735 -151 41 -17 117 -48 168 -69 51 -21
118 -56 150 -78 31 -21 93 -61 137 -87 98 -59 296 -204 419 -306 241 -200 592
-678 714 -971 128 -307 199 -764 173 -1112 -5 -77 -24 -231 -41 -341 -26 -174
-39 -224 -96 -395 -36 -107 -91 -247 -122 -310 -80 -161 -203 -363 -251 -413
-23 -23 -41 -45 -41 -49 0 -3 -6 -13 -13 -20 -7 -7 -47 -53 -88 -103 -42 -49
-103 -115 -135 -145 -77 -71 -163 -149 -200 -179 -16 -13 -58 -50 -94 -81 -91
-80 -250 -182 -420 -268 -155 -79 -330 -154 -366 -156 -12 0 -20 -4 -17 -8 6
-11 -9 -10 -27 2 -13 9 -13 11 0 20 8 5 35 12 60 16 25 3 80 24 124 45 43 22
84 39 92 39 14 0 79 35 105 57 9 8 20 13 25 12 14 -3 47 13 68 33 11 10 25 18
31 18 7 0 20 9 29 19 10 11 33 27 51 35 32 15 131 87 206 149 19 16 61 49 94
74 184 138 454 440 584 653 114 188 206 392 280 622 43 133 56 191 88 388 25
157 28 199 27 410 0 218 -10 361 -34 485 -5 28 -14 79 -20 115 -17 94 -84 297
-143 430 -34 77 -89 171 -165 285 -137 203 -146 215 -283 375 -137 161 -181
202 -369 341 -394 294 -636 414 -1021 507 -151 37 -223 47 -446 63 -149 11
-173 15 -173 29 0 34 14 36 205 20z m-300 -120 c15 -25 -18 -37 -118 -44 -488
-33 -936 -190 -1272 -445 -156 -119 -443 -414 -593 -611 -122 -159 -283 -445
-347 -617 -64 -168 -86 -286 -97 -508 -15 -293 -13 -468 6 -622 38 -316 109
-558 237 -817 44 -88 83 -164 88 -170 5 -6 25 -39 44 -73 32 -57 34 -62 16
-66 -14 -4 -24 3 -36 26 -9 18 -28 50 -43 72 -57 83 -189 364 -229 485 -129
398 -161 692 -126 1180 29 408 115 647 371 1035 154 233 439 544 662 722 70
56 280 175 443 252 197 92 442 163 679 196 118 16 306 19 315 5z m505 -11
c190 -22 508 -118 684 -206 201 -101 568 -348 703 -473 60 -56 187 -195 259
-285 61 -75 216 -300 266 -385 208 -354 283 -729 259 -1295 -17 -391 -84 -676
-236 -1005 -30 -66 -65 -135 -78 -154 -12 -19 -41 -68 -64 -108 -23 -41 -58
-91 -78 -113 l-36 -40 26 44 c15 24 21 41 14 39 -7 -2 -17 -13 -23 -24 -6 -10
-19 -31 -28 -46 -23 -33 -23 -44 -1 -27 13 11 13 8 -2 -12 -11 -15 -23 -25
-27 -22 -5 2 -13 -7 -20 -21 -6 -14 -15 -26 -19 -26 -4 0 -10 -9 -14 -19 -7
-24 -160 -180 -265 -272 -114 -100 -316 -248 -439 -322 -141 -84 -453 -225
-435 -196 3 6 47 30 98 54 308 147 562 313 777 507 134 122 194 187 315 345
157 203 238 352 345 633 78 205 115 400 152 790 10 98 -21 578 -44 700 -59
307 -207 601 -463 919 -99 122 -259 299 -325 358 -20 18 -53 42 -75 55 -21 13
-106 68 -190 124 -178 119 -318 202 -436 256 -82 39 -341 124 -445 147 -97 21
-272 42 -415 49 -143 7 -145 7 -148 31 l-4 24 164 -7 c89 -4 201 -11 248 -17z
m-500 -113 c0 -19 -6 -24 -37 -30 -21 -3 -67 -6 -102 -6 -80 0 -453 -64 -535
-91 -345 -117 -631 -285 -833 -491 -299 -305 -350 -359 -412 -443 -166 -222
-344 -582 -387 -784 -36 -170 -55 -346 -26 -240 20 71 25 -5 15 -196 -11 -192
-6 -316 27 -609 28 -240 144 -542 315 -816 36 -58 61 -106 56 -108 -6 -2 -8
-11 -5 -20 12 -37 -60 59 -126 169 -170 282 -262 559 -305 914 -25 196 -15
799 15 921 49 205 108 350 232 570 99 174 180 284 323 434 60 64 154 164 207
222 221 240 629 464 1023 562 33 8 123 24 200 35 191 28 190 28 278 30 75 1
77 0 77 -23z m365 13 c140 -12 293 -43 490 -100 155 -44 270 -94 390 -171 44
-28 127 -81 185 -118 58 -37 138 -85 178 -105 51 -27 110 -72 200 -155 162
-150 255 -261 409 -490 125 -184 194 -319 248 -485 56 -172 80 -309 94 -530
18 -287 -16 -721 -75 -956 -52 -209 -202 -561 -272 -639 -18 -19 -32 -38 -32
-42 0 -5 -7 -8 -16 -8 -8 0 -13 -4 -10 -9 5 -8 -36 -77 -74 -125 -52 -66 -249
-270 -306 -316 -37 -30 -78 -65 -92 -78 -14 -12 -60 -48 -101 -80 -42 -31 -85
-65 -95 -75 -74 -66 -614 -330 -669 -326 -7 0 2 5 18 11 17 6 42 20 58 30 15
11 94 51 175 90 355 169 520 287 787 560 145 148 199 211 276 323 108 158 124
188 181 329 82 206 130 353 148 461 51 299 56 381 51 814 -5 393 -91 665 -327
1023 -103 156 -174 245 -295 370 -132 136 -241 223 -334 268 -44 21 -123 69
-175 107 -166 119 -299 188 -465 242 -295 97 -480 131 -707 131 l-108 0 0 30
0 30 73 0 c39 0 126 -5 192 -11z m-370 -119 c3 -11 4 -24 1 -28 -3 -5 -52 -12
-108 -16 -217 -15 -418 -51 -583 -104 -221 -72 -516 -231 -645 -347 -43 -40
-107 -93 -142 -119 -36 -25 -89 -78 -118 -117 -29 -39 -61 -76 -70 -82 -25
-18 -185 -221 -250 -317 -113 -169 -203 -357 -250 -525 -47 -168 -64 -221 -77
-240 -13 -19 -13 -19 -13 2 0 11 -2 36 -5 54 -4 27 -3 29 3 9 7 -20 10 -12 14
40 17 190 192 569 377 816 153 204 476 516 655 632 157 102 459 237 626 281
96 26 235 50 380 66 175 19 197 19 205 -5z m460 -9 c115 -14 269 -49 370 -84
290 -103 352 -133 544 -261 62 -42 118 -76 123 -76 18 0 199 -134 269 -199
269 -247 518 -629 619 -950 45 -146 85 -351 74 -391 l-6 -25 -9 23 c-5 13 -27
99 -50 190 -65 267 -115 386 -277 657 -135 227 -439 542 -629 651 -26 15 -81
50 -122 77 -66 44 -175 99 -326 165 -263 115 -606 192 -852 192 l-83 0 0 28 0
27 127 -6 c71 -4 173 -12 228 -18z m-457 -118 c3 -17 -2 -23 -15 -23 -67 0
-261 -25 -388 -51 -238 -47 -358 -89 -610 -215 -143 -71 -189 -100 -290 -181
-329 -266 -562 -576 -718 -954 -20 -48 -45 -123 -57 -168 -11 -44 -33 -115
-49 -158 -74 -202 -94 -374 -75 -658 23 -334 42 -427 143 -678 59 -147 155
-313 225 -387 58 -61 134 -156 117 -146 -10 7 -12 3 -6 -14 6 -19 5 -21 -13
-11 -11 6 -31 25 -43 42 -12 18 -49 62 -81 98 -114 127 -210 307 -289 539 -84
249 -129 680 -98 937 11 90 32 167 87 325 17 47 49 145 72 218 61 193 160 385
304 588 130 184 475 521 601 587 258 137 476 228 637 266 198 47 350 69 458
67 80 -1 85 -2 88 -23z m397 12 c185 -28 425 -89 575 -147 258 -99 648 -347
775 -493 29 -33 95 -108 147 -166 51 -59 108 -133 127 -165 19 -33 57 -94 84
-137 61 -97 156 -305 191 -414 14 -45 39 -148 56 -230 17 -81 42 -182 56 -223
68 -194 28 -740 -75 -1035 -107 -304 -183 -447 -324 -610 -332 -382 -608 -593
-1012 -772 -133 -59 -205 -85 -220 -79 -8 3 -20 -1 -27 -8 -17 -16 -161 -53
-248 -63 -25 -3 -62 -8 -82 -13 -20 -4 -48 -5 -62 -3 -13 3 -46 -2 -73 -11
-26 -8 -81 -18 -120 -22 -70 -6 -73 -6 -73 15 0 26 12 28 165 35 67 3 154 12
195 21 172 37 220 48 311 76 53 16 105 29 116 29 11 0 87 35 169 79 356 187
475 273 713 510 103 102 217 227 254 276 87 116 199 343 271 550 59 168 80
268 91 425 3 52 10 131 15 175 19 161 9 299 -30 417 -11 35 -32 117 -45 183
-63 309 -115 441 -283 715 -155 253 -299 406 -557 591 -146 105 -339 215 -490
281 -95 42 -334 111 -472 138 -117 22 -339 44 -382 38 -32 -5 -45 9 -35 37 8
20 163 20 299 0z m1 -121 c270 -39 442 -92 701 -219 208 -103 344 -190 394
-253 11 -15 25 -28 30 -28 22 -3 23 -5 10 -13 -15 -9 46 -99 209 -311 139
-180 254 -376 325 -554 31 -79 96 -326 121 -461 13 -74 15 -132 11 -320 -3
-126 -10 -246 -15 -265 -6 -19 -16 -55 -23 -80 -10 -38 -13 -42 -20 -25 -7 18
-8 18 -8 -5 -1 -14 -15 -59 -32 -100 -17 -41 -50 -127 -73 -190 -49 -131 -79
-192 -147 -302 -48 -78 -75 -113 -228 -291 -254 -297 -715 -571 -1121 -666
-154 -36 -403 -61 -415 -42 -4 7 -4 15 -1 18 3 3 72 12 153 19 243 21 502 97
718 209 226 118 409 251 561 407 81 83 212 237 251 293 31 45 156 299 191 390
18 44 54 137 81 206 51 130 62 176 81 334 26 210 0 418 -89 725 -47 162 -99
280 -196 445 -55 94 -102 156 -241 320 -120 142 -186 206 -240 231 -21 10 -64
34 -94 55 -98 65 -227 138 -323 183 -52 24 -98 49 -102 56 -5 9 -2 10 12 6 11
-4 54 -13 96 -21 97 -19 171 -57 272 -140 67 -55 184 -125 210 -125 9 0 -213
181 -271 221 -45 30 -134 64 -384 142 -278 88 -432 117 -617 117 -85 0 -93 2
-93 19 0 11 3 26 6 35 7 19 46 16 300 -20z m-390 2 c9 -39 -2 -46 -79 -46
-260 -1 -605 -90 -855 -221 -223 -116 -311 -173 -427 -277 -214 -190 -424
-478 -530 -727 -188 -441 -243 -816 -165 -1127 35 -138 185 -508 269 -663 82
-151 341 -441 484 -542 62 -44 75 -58 66 -69 -9 -11 -15 -11 -37 3 -142 90
-403 360 -529 548 -38 57 -92 168 -146 300 -34 84 -107 309 -107 332 0 11 -14
35 -31 54 -17 19 -36 45 -41 59 -6 14 -13 97 -15 185 -4 138 -1 182 21 324 55
346 230 778 410 1011 68 89 231 273 302 341 159 153 459 326 702 405 222 71
508 130 654 133 43 1 48 -2 54 -23z m349 -117 c182 -18 356 -68 420 -121 17
-14 107 -69 200 -122 390 -224 521 -324 673 -520 215 -276 301 -456 395 -826
l42 -165 0 -205 c0 -165 -4 -221 -19 -285 -19 -85 -69 -247 -86 -280 -5 -11
-25 -64 -45 -117 -74 -208 -173 -375 -325 -549 -208 -238 -394 -380 -680 -521
-173 -85 -260 -116 -453 -158 -134 -29 -363 -55 -391 -44 -27 11 -18 33 17 38
17 3 75 7 127 10 194 10 510 88 635 156 239 129 438 258 533 345 93 85 314
358 363 448 54 101 103 209 136 302 13 39 38 101 55 138 62 142 107 439 93
617 -7 98 -82 423 -120 525 -134 355 -288 562 -615 827 -132 106 -556 343
-702 392 -80 27 -235 51 -400 61 l-108 7 0 35 0 35 78 -7 c42 -3 122 -11 177
-16z m-367 -26 l-3 -28 -115 -6 c-143 -8 -215 -21 -355 -64 -164 -52 -318
-122 -430 -198 -300 -203 -463 -340 -557 -469 -23 -32 -44 -55 -46 -53 -12 12
81 126 205 252 268 273 427 395 568 436 28 8 88 30 135 49 135 56 236 85 350
102 14 2 76 4 138 5 l113 1 -3 -27z m-1880 -59 c-24 -31 -56 -76 -72 -98 -15
-23 -50 -63 -77 -91 -74 -77 -193 -226 -253 -320 -48 -74 -198 -353 -229 -428
-42 -97 -90 -274 -111 -407 -36 -224 -45 -567 -21 -774 23 -195 87 -497 129
-603 20 -51 36 -98 36 -104 0 -44 171 -405 236 -501 15 -21 24 -46 22 -60 -3
-19 -17 -3 -76 87 -40 61 -92 151 -117 200 -77 157 -178 458 -214 635 -76 371
-88 513 -71 785 31 490 112 784 298 1078 179 280 240 362 407 545 62 68 148
138 153 123 2 -5 -16 -36 -40 -67z m1923 -56 c5 -7 7 -17 6 -23 -2 -5 -59 -15
-128 -22 -157 -15 -210 -25 -389 -75 -217 -60 -331 -117 -570 -287 -211 -150
-291 -228 -445 -435 -162 -217 -236 -369 -294 -601 -90 -361 -33 -771 161
-1160 71 -141 96 -181 174 -280 194 -244 394 -400 721 -563 148 -74 353 -133
553 -158 134 -16 390 -18 510 -4 127 16 382 86 479 131 150 71 339 190 435
275 93 82 253 250 324 339 101 127 210 369 276 613 82 300 84 531 9 847 -47
199 -118 367 -216 515 -142 215 -292 356 -602 568 -27 19 -103 61 -168 94
-229 114 -395 159 -695 187 -57 5 -106 12 -109 15 -3 2 -2 14 2 27 7 22 9 22
134 16 251 -12 423 -55 630 -159 189 -94 251 -132 406 -248 210 -156 318 -268
462 -480 45 -67 137 -255 166 -340 79 -232 112 -443 104 -670 -7 -201 -24
-290 -92 -483 -121 -347 -190 -464 -406 -691 -132 -138 -264 -251 -358 -305
-326 -189 -475 -246 -742 -285 -141 -21 -478 -22 -558 -2 -59 15 -86 20 -191
37 -169 26 -343 95 -575 229 -92 53 -325 227 -325 242 0 5 5 6 12 2 7 -5 8 -3
4 5 -5 7 -14 10 -22 7 -7 -3 -16 0 -20 6 -4 7 -3 8 4 4 7 -4 12 -2 12 3 0 10
-15 15 -22 9 -8 -7 -66 56 -61 65 3 6 1 7 -5 3 -12 -7 -124 116 -194 215 -66
91 -170 311 -212 443 -103 327 -101 318 -100 556 0 195 3 227 27 341 37 172
82 298 166 470 74 150 159 269 214 298 15 8 27 18 27 22 0 15 232 219 345 303
242 180 371 252 568 314 157 51 252 71 382 82 119 10 175 6 186 -12z m-1167
-170 c-6 -10 -4 -10 7 0 7 6 18 12 23 12 6 0 -39 -49 -99 -110 -60 -60 -106
-110 -102 -110 5 0 -1 -14 -13 -31 -12 -16 -25 -28 -28 -25 -3 4 5 18 19 34
l24 27 -27 -24 c-16 -14 -28 -34 -28 -45 0 -20 -32 -49 -55 -51 -5 -1 -8 -7
-7 -15 2 -8 0 -12 -4 -8 -11 12 -34 -11 -27 -28 3 -8 -1 -14 -11 -14 -9 0 -39
-32 -68 -72 -29 -40 -70 -95 -91 -122 -60 -79 -212 -399 -251 -528 -71 -235
-103 -457 -93 -652 5 -108 4 -110 -13 -88 -26 32 -35 169 -22 337 21 284 126
599 297 890 87 149 149 226 362 448 51 53 93 101 93 105 0 4 8 13 18 20 9 6
33 23 52 36 39 27 55 32 44 14z m2841 -202 c100 -100 187 -214 277 -363 26
-43 59 -98 75 -123 59 -95 130 -284 183 -490 29 -113 61 -236 71 -274 23 -83
24 -252 4 -436 -8 -69 -19 -186 -24 -260 -10 -126 -27 -209 -64 -305 -8 -22
-30 -78 -47 -125 -84 -222 -173 -350 -426 -606 -244 -247 -397 -361 -659 -492
-278 -139 -618 -232 -893 -245 -84 -4 -104 -3 -109 9 -3 8 -3 17 -1 19 6 6
289 29 351 28 27 0 43 3 37 7 -17 11 39 19 90 14 26 -2 38 -1 27 4 -12 5 7 14
70 31 49 13 105 32 125 42 44 22 64 25 28 4 -35 -20 -3 -19 35 1 17 9 113 59
214 111 317 165 502 311 791 627 197 217 367 610 385 891 3 55 13 170 22 255
21 210 14 327 -32 526 -53 232 -109 420 -154 516 -94 205 -305 511 -474 684
-55 57 -57 61 -31 56 20 -3 62 -38 129 -106z m-1578 39 c55 -16 137 -81 146
-116 4 -15 -5 -9 -29 19 -42 49 -121 82 -198 82 -62 0 -96 -21 -188 -115 -32
-33 -58 -53 -58 -44 0 35 77 122 135 151 79 41 116 46 192 23z m20 -121 c23
-13 51 -36 63 -51 21 -27 21 -30 19 -617 0 -355 -5 -607 -11 -631 -12 -49 -31
-71 -83 -98 -89 -46 -197 -11 -235 76 -16 38 -18 96 -24 647 l-7 605 33 32
c60 57 95 72 152 66 28 -3 70 -16 93 -29z m623 -196 c19 -6 61 -24 93 -40 96
-48 356 -313 402 -411 15 -32 15 -32 -2 -7 -10 13 -57 72 -104 130 -252 308
-484 402 -644 261 l-30 -26 25 28 c71 81 144 99 260 65z m-1236 -8 c23 -11 51
-35 64 -53 31 -47 27 -54 -8 -13 -17 18 -49 42 -73 51 -52 21 -163 21 -212 1
-62 -26 -176 -106 -169 -118 4 -6 3 -8 -3 -5 -13 8 -110 -86 -161 -156 -39
-52 -86 -100 -67 -67 73 123 198 247 331 328 87 52 87 52 172 52 65 0 95 -5
126 -20z m-14 -102 c50 -35 74 -89 73 -167 -2 -106 -9 -118 -113 -189 -106
-71 -196 -184 -279 -350 -60 -119 -75 -190 -75 -362 0 -120 4 -161 23 -235 13
-49 27 -94 31 -100 4 -5 10 -19 14 -29 5 -16 4 -17 -9 -6 -13 11 -14 10 -9 -4
3 -9 12 -16 20 -16 16 0 19 -16 4 -25 -6 -4 -4 -12 5 -21 8 -9 13 -20 10 -25
-4 -5 -1 -9 4 -9 6 0 11 -4 11 -10 0 -5 -8 -7 -17 -4 -14 5 -15 4 -4 -4 8 -6
21 -7 30 -4 14 5 14 3 2 -11 -11 -14 -11 -17 1 -17 7 0 21 -9 31 -20 16 -20
16 -21 -8 -30 -14 -5 -25 -14 -25 -20 0 -5 -8 -10 -17 -11 -13 0 -14 -2 -4 -6
8 -3 20 2 27 12 7 9 17 14 22 11 6 -3 13 0 16 6 5 10 7 10 12 0 3 -7 17 -24
31 -38 23 -23 24 -26 9 -37 -15 -11 -14 -13 5 -25 20 -13 21 -12 15 5 -6 14
-5 15 5 6 10 -10 9 -21 -4 -55 -13 -33 -13 -39 -2 -24 8 10 16 24 18 30 3 7
12 4 23 -8 19 -18 19 -19 0 -12 -16 6 -17 4 -5 -10 12 -14 14 -14 27 3 13 16
14 16 9 1 -3 -10 -2 -20 3 -23 4 -3 10 1 13 7 2 7 8 10 12 5 5 -4 3 -13 -3
-19 -18 -18 -15 -23 20 -24 29 -1 30 0 13 12 -20 15 -17 18 9 8 9 -3 16 -13
16 -21 0 -9 6 -13 14 -10 10 4 13 1 9 -9 -6 -16 -23 -19 -23 -3 0 5 -5 7 -11
4 -6 -5 -2 -13 11 -22 17 -12 24 -13 30 -3 5 9 9 9 14 1 22 -35 -77 -9 -121
32 -13 11 -23 16 -23 10 0 -6 7 -14 16 -17 15 -6 15 -8 -1 -26 -10 -11 -13
-20 -8 -20 6 0 13 7 17 15 4 12 10 13 38 1 35 -15 45 -30 31 -49 -4 -7 -1 -5
8 5 9 9 19 14 23 11 3 -3 15 2 26 12 12 11 24 15 28 9 4 -5 6 -8 3 -7 -8 5
-33 -28 -26 -35 4 -4 10 -1 12 6 8 22 25 13 18 -10 -4 -15 -3 -19 3 -10 5 7
16 10 25 6 10 -3 17 -1 17 6 0 6 7 18 15 26 13 14 15 13 13 -7 -2 -12 3 -24
10 -26 7 -3 11 1 10 7 -2 7 2 14 8 17 7 2 10 -5 7 -22 -3 -15 -1 -25 6 -25 6
0 11 8 11 17 0 12 3 14 11 6 8 -8 8 -17 -1 -33 -10 -19 -9 -25 6 -39 17 -15
17 -15 5 1 -10 13 -10 21 1 37 13 22 28 28 28 12 0 -6 -4 -13 -10 -16 -5 -3
-10 -11 -10 -16 0 -6 5 -7 10 -4 6 3 10 1 10 -5 0 -6 5 -8 12 -4 9 6 9 9 0 12
-17 5 -15 19 4 26 8 3 13 2 10 -3 -3 -5 1 -12 10 -15 8 -3 13 -2 10 3 -4 5 3
7 14 4 11 -3 20 -10 20 -15 0 -5 4 -7 9 -4 5 4 7 -3 4 -14 -3 -11 -10 -20 -15
-20 -5 0 -6 -5 -3 -11 4 -6 18 5 32 26 14 21 28 33 32 28 3 -6 17 -16 30 -23
19 -10 25 -10 32 1 8 12 11 11 18 -1 6 -8 13 -11 17 -8 4 4 15 3 25 -2 12 -7
22 -6 32 5 8 8 17 11 21 8 3 -3 -4 -14 -16 -24 -11 -11 -17 -19 -12 -19 6 0
15 5 22 12 8 8 15 8 27 -2 14 -11 18 -11 25 -1 5 9 10 10 14 2 4 -6 4 -16 0
-23 -4 -7 -3 -8 4 -4 16 10 15 36 0 37 -7 1 -19 2 -27 3 -8 0 -16 8 -19 16 -3
12 -2 12 8 3 7 -6 19 -9 26 -6 8 3 21 0 28 -6 9 -8 17 -8 20 -2 3 5 0 11 -6
14 -7 2 -10 8 -6 12 10 11 35 -18 31 -35 -4 -12 -3 -13 5 -1 5 7 15 10 21 7 6
-4 11 -3 11 2 0 6 -7 12 -15 16 -27 10 -16 22 21 23 24 1 37 -4 42 -15 7 -19
27 -42 37 -42 3 0 -3 13 -14 29 -23 32 -27 46 -11 36 6 -4 17 -1 25 5 8 7 15
9 15 5 0 -4 6 -2 14 4 11 9 17 4 30 -23 9 -19 16 -39 16 -45 0 -6 5 -11 10
-11 6 0 10 7 10 15 0 8 -5 15 -11 15 -5 0 -7 4 -4 10 3 5 -2 21 -11 35 -10 16
-12 25 -5 25 7 0 20 -18 30 -41 10 -22 21 -36 25 -31 3 6 2 13 -4 17 -6 4 -8
10 -5 15 3 5 1 11 -5 15 -5 3 -10 11 -10 17 0 6 8 3 19 -8 10 -10 17 -22 15
-26 -3 -4 0 -9 6 -13 15 -9 12 18 -5 41 -27 36 -15 39 15 4 34 -40 40 -33 10
10 -16 22 -17 30 -8 36 7 4 10 4 6 0 -3 -4 8 -21 25 -37 29 -28 30 -30 11 -44
-10 -8 -14 -15 -8 -15 6 0 32 21 57 46 26 25 51 43 57 39 16 -10 12 -21 -15
-35 -14 -7 -25 -17 -25 -22 0 -5 14 0 30 12 31 22 39 45 18 54 -9 3 -8 9 6 20
10 9 15 20 10 27 -5 9 -10 6 -15 -9 -8 -21 -29 -31 -29 -13 0 15 41 61 52 58
6 -1 15 11 20 27 10 26 41 66 53 66 13 0 3 -21 -21 -45 -14 -14 -23 -29 -20
-32 6 -6 41 29 50 50 3 8 8 7 15 -3 6 -8 11 -10 11 -4 0 5 -5 15 -11 21 -8 8
-8 17 0 31 6 11 8 29 4 39 -6 16 -5 16 10 4 15 -12 17 -11 17 3 0 15 18 54 30
66 9 9 34 65 32 73 -1 4 3 7 9 7 5 0 9 10 7 23 -2 14 2 21 10 19 10 -2 11 4 7
19 -6 19 -4 21 16 16 21 -5 22 -5 7 7 -10 8 -14 16 -8 22 5 5 22 50 39 99 55
166 61 346 16 518 -44 168 -166 345 -327 474 -78 62 -92 81 -109 143 -19 71
-5 134 39 178 54 54 106 67 185 47 90 -23 136 -54 265 -179 240 -233 347 -456
382 -803 15 -146 -1 -343 -37 -458 -43 -140 -133 -309 -228 -427 -47 -60 -89
-108 -95 -108 -6 0 -20 -11 -32 -25 -12 -14 -28 -23 -35 -21 -7 3 -10 -1 -7
-8 11 -27 -320 -247 -346 -231 -4 3 -13 -2 -20 -10 -13 -15 -112 -50 -175 -60
-22 -4 -65 -15 -96 -25 -47 -16 -87 -19 -238 -19 -126 -1 -181 3 -181 10 0 8
-5 7 -15 -1 -11 -9 -15 -9 -15 -1 0 7 -5 9 -10 6 -19 -12 -110 6 -110 21 0 9
-11 14 -29 14 -17 0 -33 5 -36 10 -4 6 -10 8 -13 6 -20 -12 -159 38 -217 78
-16 12 -32 20 -35 19 -10 -4 -70 37 -70 47 0 6 -4 9 -9 5 -23 -14 -18 16 5 34
15 12 23 21 18 21 -4 0 -18 -9 -30 -21 l-22 -21 -64 45 c-126 90 -166 130
-293 297 -106 139 -203 378 -224 555 -13 111 -14 224 -1 333 11 103 60 279 71
260 10 -15 11 -14 32 41 13 35 14 47 4 54 -9 6 -8 7 3 4 16 -4 46 20 36 30 -3
3 -13 0 -22 -8 -11 -9 -6 8 14 47 17 33 37 66 46 73 9 7 13 18 9 25 -4 6 0 6
9 -2 13 -10 17 -10 21 2 3 8 1 17 -6 20 -7 2 -2 5 9 5 12 1 24 8 27 15 4 11 1
13 -11 9 -14 -5 -15 -4 -4 8 7 8 17 14 22 14 11 0 51 47 45 53 -2 3 -14 -6
-25 -19 l-21 -24 18 33 c21 40 163 179 221 217 112 74 238 96 302 53z m-714
-614 c-4 -9 -9 -15 -11 -12 -3 3 -3 13 1 22 4 9 9 15 11 12 3 -3 3 -13 -1 -22z
m972 -745 c20 -17 27 -26 15 -20 -28 14 -80 67 -94 94 -6 12 1 8 16 -10 14
-18 43 -46 63 -64z m3219 -1 c-2 -13 -4 -3 -4 22 0 25 2 35 4 23 2 -13 2 -33
0 -45z m-4941 25 c6 -10 30 -79 53 -153 70 -225 91 -280 152 -402 80 -160 110
-204 237 -349 137 -156 221 -234 337 -311 50 -33 110 -75 135 -93 70 -51 208
-130 279 -160 208 -87 535 -164 699 -165 55 0 62 -2 62 -20 0 -16 -7 -20 -34
-20 -54 0 -265 29 -326 45 -30 8 -102 26 -160 40 -121 30 -254 81 -349 132
-91 50 -195 119 -223 148 -13 14 -29 25 -36 25 -41 0 -239 160 -346 279 -198
221 -241 281 -320 447 -78 161 -153 391 -180 547 -5 31 4 35 20 10z m-959 -60
c-3 -10 -5 -4 -5 12 0 17 2 24 5 18 2 -7 2 -21 0 -30z m5890 -40 c-3 -10 -5
-2 -5 17 0 19 2 27 5 18 2 -10 2 -26 0 -35z m-5869 -93 c0 -16 -3 -10 -9 15
-4 22 -8 54 -7 70 0 22 3 19 9 -15 4 -25 7 -56 7 -70z m2343 -110 c116 -114
269 -191 457 -230 132 -26 175 -25 312 8 223 55 319 108 455 254 51 54 71 71
59 49 -28 -50 -141 -162 -204 -202 -30 -19 -82 -47 -116 -62 -80 -35 -276 -77
-360 -77 -81 0 -249 33 -327 65 -154 62 -312 190 -402 326 -62 93 -56 99 7 8
29 -41 82 -103 119 -139z m789 195 c0 -13 -63 -33 -120 -38 -61 -5 -63 -5 -20
5 25 6 65 16 90 24 25 7 46 13 48 13 1 1 2 -1 2 -4z m2727 -57 c-3 -7 -5 -2
-5 12 0 14 2 19 5 13 2 -7 2 -19 0 -25z m-5042 -138 c56 -193 145 -397 233
-535 90 -140 314 -378 447 -474 33 -24 83 -61 110 -82 28 -20 95 -62 150 -92
55 -30 147 -80 204 -112 123 -68 271 -131 396 -169 50 -15 106 -33 125 -41 19
-7 96 -18 170 -25 184 -15 220 -21 220 -34 0 -14 -163 -9 -168 5 -2 5 -35 9
-73 9 -71 0 -156 15 -173 31 -6 5 -21 9 -35 9 -15 0 -48 11 -76 25 -27 13 -59
25 -70 25 -44 1 -165 46 -165 62 0 4 -9 8 -20 8 -21 0 -150 55 -160 68 -3 4
-48 29 -100 56 -105 54 -290 174 -290 187 0 5 -5 9 -11 9 -33 0 -296 237 -397
359 -163 195 -203 270 -322 591 -24 65 -50 179 -50 220 1 43 1 44 14 20 7 -14
26 -68 41 -120z m5031 70 c-20 -148 -131 -488 -231 -705 -102 -223 -302 -525
-461 -700 -92 -100 -342 -344 -422 -410 -146 -121 -514 -327 -757 -423 -121
-48 -358 -116 -475 -137 -335 -60 -305 -57 -615 -53 -288 5 -291 5 -465 42
-96 20 -217 48 -268 62 -496 134 -1065 496 -1429 907 -194 220 -355 451 -464
668 -52 104 -132 299 -126 305 2 2 21 -40 42 -94 144 -367 430 -774 748 -1064
256 -232 507 -400 811 -540 249 -115 406 -166 731 -237 124 -27 234 -34 480
-34 274 1 274 1 560 61 357 75 740 235 1040 435 160 107 308 233 492 418 177
178 228 241 361 439 198 296 347 648 424 1004 25 113 35 137 24 56z m-5839
-22 c-3 -7 -5 -2 -5 12 0 14 2 19 5 13 2 -7 2 -19 0 -25z m5034 -108 c25 38
-32 -147 -76 -245 -93 -209 -162 -315 -315 -485 -133 -148 -125 -140 -117
-117 4 11 3 16 -3 12 -6 -3 -10 -10 -10 -15 0 -13 -88 -101 -163 -163 -89 -75
-299 -212 -392 -257 -258 -124 -309 -144 -510 -193 -106 -26 -261 -47 -335
-45 -25 0 -66 -3 -92 -7 -44 -7 -48 -6 -48 12 0 18 8 21 78 26 42 3 116 4 165
3 48 -1 87 1 87 5 0 5 17 11 38 14 20 4 114 29 207 57 288 84 551 226 805 434
72 58 133 111 137 118 5 8 44 52 87 100 211 229 360 501 422 771 l19 80 3 -60
c2 -43 6 -55 13 -45z m-5024 68 c-3 -8 -6 -5 -6 6 -1 11 2 17 5 13 3 -3 4 -12
1 -19z m10 -40 c-3 -8 -6 -5 -6 6 -1 11 2 17 5 13 3 -3 4 -12 1 -19z m10 -40
c-3 -8 -6 -5 -6 6 -1 11 2 17 5 13 3 -3 4 -12 1 -19z m27 -88 c4 -24 3 -29 -3
-15 -4 11 -11 36 -15 55 -4 24 -3 29 3 15 4 -11 11 -36 15 -55z m3431 -60 c-3
-5 -12 -10 -18 -10 -7 0 -6 4 3 10 19 12 23 12 15 0z m-20 -40 c3 -5 1 -10 -4
-10 -6 0 -11 5 -11 10 0 6 2 10 4 10 3 0 8 -4 11 -10z m-14 -19 l20 -19 -30
-31 -31 -32 -25 25 c-27 27 -32 41 -12 33 6 -2 21 6 32 19 24 29 21 28 46 5z
m-955 -38 c-10 -10 -19 5 -10 18 6 11 8 11 12 0 2 -7 1 -15 -2 -18z m1955 -16
c-10 -9 -11 -8 -5 6 3 10 9 15 12 12 3 -3 0 -11 -7 -18z m-4331 -22 c0 -5 -5
-3 -10 5 -5 8 -10 20 -10 25 0 6 5 3 10 -5 5 -8 10 -19 10 -25z m1373 -95 l48
-65 -45 50 c-25 28 -54 68 -66 90 -15 29 -16 33 -3 15 10 -13 40 -54 66 -90z
m1431 45 c-4 -8 -11 -12 -16 -9 -6 4 -5 10 3 15 19 12 19 11 13 -6z m1395
-107 c-100 -113 -269 -280 -329 -325 -74 -56 -245 -151 -354 -198 -121 -51
-403 -121 -544 -134 -207 -19 -444 11 -716 90 -97 29 -354 148 -406 189 l-25
20 40 -18 c22 -10 101 -48 175 -84 139 -69 320 -128 508 -165 113 -22 478 -25
562 -5 271 67 435 127 625 232 92 50 117 71 310 262 116 114 212 208 214 208
1 0 -26 -32 -60 -72z m-2507 -251 c94 -70 114 -95 28 -37 -81 55 -212 170
-241 212 -13 19 11 1 57 -43 43 -42 114 -101 156 -132z m119 -94 c13 -16 12
-17 -3 -4 -17 13 -22 21 -14 21 2 0 10 -8 17 -17z m-1061 -23 c0 -5 -4 -10
-10 -10 -5 0 -10 5 -10 10 0 6 5 10 10 10 6 0 10 -4 10 -10z m946 -226 c256
-155 396 -215 634 -274 85 -21 176 -42 203 -45 26 -4 47 -11 47 -16 0 -5 17
-9 38 -9 20 0 44 -5 52 -11 11 -7 -6 -8 -55 -4 -94 9 -306 52 -319 65 -5 5
-24 10 -40 10 -34 0 -194 54 -210 70 -5 5 -16 10 -24 10 -38 0 -381 186 -434
235 -14 14 -33 25 -42 25 -18 0 -30 16 -21 30 3 6 8 10 10 10 1 0 74 -43 161
-96z m-621 66 c-3 -5 1 -10 9 -10 8 0 21 -8 28 -18 7 -9 23 -24 35 -32 12 -8
75 -56 140 -106 132 -102 268 -195 358 -243 32 -18 71 -41 85 -51 94 -66 450
-204 585 -226 17 -3 46 -9 65 -14 19 -5 94 -13 165 -20 171 -14 195 -18 195
-35 0 -13 -16 -15 -35 -3 -5 3 -64 9 -130 12 -66 4 -147 10 -180 13 -51 6 -55
8 -30 13 l30 7 -40 7 c-22 4 -60 11 -84 17 -23 5 -78 16 -120 23 -42 8 -126
33 -186 56 -115 44 -409 199 -451 238 -14 12 -29 22 -34 22 -7 0 -108 74 -265
194 -22 17 -66 55 -97 85 -55 52 -71 81 -47 81 5 0 7 -4 4 -10z m-17 -100 c51
-54 134 -130 185 -169 52 -38 99 -77 106 -85 7 -9 52 -40 100 -69 47 -29 113
-70 146 -91 140 -87 393 -191 610 -251 171 -47 233 -70 165 -59 -44 6 -164 40
-252 70 -38 13 -96 30 -130 38 -35 8 -76 22 -93 30 -16 9 -40 16 -51 16 -44 0
-399 196 -432 238 -7 10 -18 17 -25 17 -7 0 -12 6 -12 13 0 16 -24 32 -39 26
-6 -2 -22 6 -36 19 -14 12 -54 45 -90 72 -82 62 -283 263 -275 275 13 21 34 6
123 -90z m217 50 c-3 -5 -1 -11 5 -15 5 -3 10 -1 10 4 0 10 53 -23 135 -85 67
-50 384 -236 455 -266 247 -108 481 -175 633 -183 205 -11 227 -15 227 -36 0
-17 -8 -19 -72 -19 -40 0 -127 8 -193 17 -110 17 -116 18 -70 23 l50 5 -45 7
c-25 4 -79 12 -119 18 -41 5 -79 14 -85 20 -5 5 -25 10 -43 10 -18 0 -33 5
-33 10 0 6 -6 10 -12 8 -7 -1 -24 5 -38 14 -14 8 -46 18 -71 21 -58 8 -131 36
-123 48 3 5 -1 11 -8 13 -63 16 -108 37 -198 89 -58 33 -114 65 -125 71 -123
70 -306 211 -299 231 4 8 10 12 15 9 5 -3 7 -9 4 -14z m-120 -287 c28 -23 59
-49 70 -57 11 -9 15 -16 9 -16 -6 0 -17 6 -23 14 -6 7 -25 16 -41 19 -56 12
-241 192 -224 219 3 5 41 -24 83 -64 42 -40 99 -92 126 -115z m-361 44 c93
-94 182 -171 306 -263 161 -121 340 -244 354 -244 3 0 29 -15 59 -34 97 -62
406 -192 538 -226 46 -12 116 -30 154 -40 89 -23 67 -25 -44 -4 -130 24 -420
124 -493 171 -21 12 -40 23 -42 23 -16 0 -225 107 -246 125 -29 26 -142 104
-181 124 -15 7 -51 33 -80 58 -30 25 -72 56 -94 70 -78 51 -190 154 -307 283
-63 69 -78 90 -61 90 3 0 65 -60 137 -133z m317 -167 c9 0 60 -30 112 -67 291
-205 468 -295 842 -426 147 -51 357 -89 578 -103 59 -3 107 -11 107 -16 0 -6
-26 -8 -67 -5 -38 3 -122 10 -188 16 -111 8 -167 19 -300 57 -27 8 -75 18
-105 23 -49 9 -141 37 -195 60 -11 4 -56 23 -100 41 -115 46 -175 73 -220 98
-22 13 -64 36 -93 52 -30 15 -60 37 -69 47 -8 10 -12 12 -8 6 14 -28 -228 135
-299 202 -17 17 -27 27 -22 23 6 -5 18 -8 27 -8z m267 -45 c20 -14 34 -25 30
-25 -9 0 -78 41 -78 46 0 9 12 3 48 -21z m172 -103 c77 -49 343 -179 415 -202
33 -11 89 -30 125 -43 36 -14 85 -28 110 -32 70 -11 78 -22 13 -17 -58 4 -184
42 -208 62 -7 6 -41 18 -75 27 -35 8 -91 31 -125 49 -35 19 -69 34 -76 34 -30
1 -159 76 -159 93 0 6 -3 8 -6 4 -5 -5 -27 10 -59 41 -8 6 -18 12 -23 12 -5 0
-16 7 -23 17 -13 15 -12 15 11 3 14 -7 50 -29 80 -48z m2040 -117 c0 -3 -12
-10 -26 -15 -14 -6 -23 -14 -20 -18 7 -12 -182 -63 -257 -69 -34 -3 -67 -9
-73 -14 -12 -10 -171 -34 -286 -44 -73 -6 -78 -6 -78 13 0 18 9 20 113 27 194
11 438 60 625 124 1 1 2 -1 2 -4z m35 -104 c-3 -5 0 -11 7 -14 7 -2 6 -3 -2
-2 -8 1 -26 -4 -40 -11 -14 -7 -55 -20 -90 -28 -36 -9 -81 -23 -100 -31 -37
-16 -366 -65 -432 -65 -24 0 -37 4 -33 10 3 6 25 10 47 10 58 0 288 38 378 62
142 38 175 47 220 62 25 8 46 14 48 15 2 1 1 -3 -3 -8z m-1138 -17 c-3 -3 -12
-4 -19 -1 -8 3 -5 6 6 6 11 1 17 -2 13 -5z m60 -10 c-3 -3 -12 -4 -19 -1 -8 3
-5 6 6 6 11 1 17 -2 13 -5z m193 -19 c0 -8 -9 -15 -20 -15 -11 0 -20 5 -20 11
0 5 4 8 9 4 5 -3 12 -1 16 5 9 14 15 12 15 -5z m-307 -62 c-13 -2 -33 -2 -45
0 -13 2 -3 4 22 4 25 0 35 -2 23 -4z m256 -19 c33 -4 61 -11 61 -15 0 -13
-117 -9 -185 6 l-60 13 61 1 c34 1 89 -2 123 -5z m158 -36 c-3 -7 -5 -2 -5 12
0 14 2 19 5 13 2 -7 2 -19 0 -25z m642 -13 c-15 -14 -252 -52 -469 -75 -52 -5
-112 -12 -132 -15 -33 -5 -38 -3 -38 15 0 18 7 20 61 20 93 0 294 20 399 40
90 17 189 26 179 15z m-9 -92 c-102 -45 -640 -117 -640 -86 0 12 71 23 154 23
52 0 461 62 491 74 29 12 25 2 -5 -11z m-965 -58 c39 -8 81 -16 95 -18 14 -2
5 -5 -20 -6 -50 -1 -217 27 -240 40 -19 12 71 3 165 -16z"/>
<path d="M2691 6777 c-13 -21 -12 -21 5 -5 10 10 16 20 13 22 -3 3 -11 -5 -18
-17z"/>
<path d="M2611 6655 c-19 -33 -19 -34 -1 -23 10 7 17 14 15 16 -2 3 0 13 6 23
17 33 2 20 -20 -16z"/>
<path d="M2700 6549 c0 -5 5 -7 10 -4 6 3 10 8 10 11 0 2 -4 4 -10 4 -5 0 -10
-5 -10 -11z"/>
<path d="M7453 3738 c-15 -20 -25 -38 -20 -38 3 0 12 11 21 25 17 26 16 35 -1
13z"/>
<path d="M7226 4225 c-9 -26 -7 -32 5 -12 6 10 9 21 6 23 -2 3 -7 -2 -11 -11z"/>
<path d="M7169 4114 c-5 -15 -8 -29 -5 -31 2 -2 8 10 14 26 13 38 5 41 -9 5z"/>
<path d="M4858 3263 c7 -3 16 -2 19 1 4 3 -2 6 -13 5 -11 0 -14 -3 -6 -6z"/>
<path d="M5768 2833 c6 -2 18 -2 25 0 6 3 1 5 -13 5 -14 0 -19 -2 -12 -5z"/>
<path d="M4312 5888 c-7 -7 -12 -16 -12 -21 0 -5 7 -1 16 8 9 9 14 18 12 20
-2 3 -10 -1 -16 -7z"/>
<path d="M4030 5411 c-7 -15 -7 -22 2 -27 7 -4 10 -4 6 1 -4 4 -3 16 3 26 5
11 7 19 5 19 -3 0 -10 -9 -16 -19z"/>
<path d="M4495 4489 c-4 -6 -5 -12 -2 -15 2 -3 7 2 10 11 7 17 1 20 -8 4z"/>
<path d="M6050 4409 c0 -5 5 -7 10 -4 6 3 10 8 10 11 0 2 -4 4 -10 4 -5 0 -10
-5 -10 -11z"/>
<path d="M4535 4400 c3 -5 8 -10 11 -10 2 0 4 5 4 10 0 6 -5 10 -11 10 -5 0
-7 -4 -4 -10z"/>
<path d="M4448 4393 c7 -3 16 -2 19 1 4 3 -2 6 -13 5 -11 0 -14 -3 -6 -6z"/>
<path d="M6075 4390 c-3 -5 -1 -10 4 -10 6 0 11 5 11 10 0 6 -2 10 -4 10 -3 0
-8 -4 -11 -10z"/>
<path d="M4525 4370 c3 -5 8 -10 11 -10 2 0 4 5 4 10 0 6 -5 10 -11 10 -5 0
-7 -4 -4 -10z"/>
<path d="M6221 4373 c-1 -17 16 -25 25 -12 4 7 3 9 -4 5 -5 -3 -13 0 -15 6 -4
9 -6 10 -6 1z"/>
<path d="M4503 4345 c0 -8 4 -12 9 -9 4 3 8 9 8 15 0 5 -4 9 -8 9 -5 0 -9 -7
-9 -15z"/>
<path d="M4545 4340 c-3 -5 -1 -10 4 -10 6 0 11 5 11 10 0 6 -2 10 -4 10 -3 0
-8 -4 -11 -10z"/>
<path d="M6016 4333 c-6 -14 -5 -15 5 -6 7 7 10 15 7 18 -3 3 -9 -2 -12 -12z"/>
<path d="M6100 4323 c0 -5 10 -18 23 -29 l22 -19 -20 25 c-11 14 -21 27 -22
29 -2 2 -3 0 -3 -6z"/>
<path d="M4280 4310 c0 -5 5 -10 11 -10 5 0 7 5 4 10 -3 6 -8 10 -11 10 -2 0
-4 -4 -4 -10z"/>
<path d="M6037 4314 c-3 -6 4 -21 16 -35 12 -14 19 -20 15 -14 -4 6 -11 22
-16 35 -5 13 -11 19 -15 14z"/>
<path d="M6070 4300 c0 -5 5 -10 10 -10 6 0 10 5 10 10 0 6 -4 10 -10 10 -5 0
-10 -4 -10 -10z"/>
<path d="M4355 4279 c-4 -6 -5 -12 -2 -15 2 -3 7 2 10 11 7 17 1 20 -8 4z"/>
<path d="M4485 4270 c-3 -5 -1 -10 4 -10 6 0 11 5 11 10 0 6 -2 10 -4 10 -3 0
-8 -4 -11 -10z"/>
<path d="M6015 4270 c-3 -5 -1 -10 4 -10 6 0 11 5 11 10 0 6 -2 10 -4 10 -3 0
-8 -4 -11 -10z"/>
<path d="M4316 4244 c-3 -8 -10 -12 -16 -9 -5 3 -7 0 -4 -9 5 -12 8 -12 25 2
20 17 25 32 10 32 -5 0 -12 -7 -15 -16z"/>
<path d="M5973 4253 c-7 -2 -13 -12 -13 -20 0 -9 -6 -13 -15 -9 -20 7 -46 -4
-39 -16 4 -6 9 -5 14 3 6 9 12 9 24 -4 9 -8 16 -21 16 -28 0 -7 9 -3 21 10 12
12 18 25 14 29 -3 3 -10 0 -15 -8 -5 -8 -12 -12 -15 -8 -4 3 1 18 10 32 10 14
16 26 14 25 -2 0 -10 -3 -16 -6z"/>
<path d="M4420 4232 c0 -7 -5 -12 -11 -12 -6 0 -17 -7 -25 -15 -9 -8 -11 -15
-5 -15 5 0 13 5 16 10 4 6 10 8 15 5 9 -6 23 25 15 33 -3 3 -5 0 -5 -6z"/>
<path d="M6090 4229 c0 -5 5 -7 10 -4 6 3 10 8 10 11 0 2 -4 4 -10 4 -5 0 -10
-5 -10 -11z"/>
<path d="M4441 4204 c-18 -21 -6 -30 14 -11 8 9 15 18 15 21 0 11 -15 5 -29
-10z"/>
<path d="M6070 4204 c0 -8 5 -12 10 -9 6 4 8 11 5 16 -9 14 -15 11 -15 -7z"/>
<path d="M6120 4210 c0 -5 5 -10 11 -10 5 0 7 5 4 10 -3 6 -8 10 -11 10 -2 0
-4 -4 -4 -10z"/>
<path d="M4480 4200 c0 -5 5 -10 10 -10 6 0 10 5 10 10 0 6 -4 10 -10 10 -5 0
-10 -4 -10 -10z"/>
<path d="M4640 4200 c0 -5 5 -10 10 -10 6 0 10 5 10 10 0 6 -4 10 -10 10 -5 0
-10 -4 -10 -10z"/>
<path d="M4315 4180 c4 -6 11 -8 16 -5 14 9 11 15 -7 15 -8 0 -12 -5 -9 -10z"/>
<path d="M5920 4180 c0 -5 4 -10 9 -10 5 0 13 -9 16 -21 4 -11 9 -18 11 -16 7
7 -18 57 -28 57 -4 0 -8 -4 -8 -10z"/>
<path d="M4345 4160 c-3 -5 -1 -10 4 -10 6 0 11 5 11 10 0 6 -2 10 -4 10 -3 0
-8 -4 -11 -10z"/>
<path d="M4693 4163 c-7 -2 -13 -9 -13 -15 0 -7 5 -7 13 1 8 6 17 8 20 4 4 -3
7 -1 7 5 0 13 -7 14 -27 5z"/>
<path d="M5900 4165 c0 -5 5 -17 10 -25 5 -8 10 -10 10 -5 0 6 -5 17 -10 25
-5 8 -10 11 -10 5z"/>
<path d="M4430 4143 c-13 -15 -12 -16 4 -10 10 4 20 7 22 7 2 0 4 5 4 10 0 15
-13 12 -30 -7z"/>
<path d="M4580 4149 c0 -5 5 -7 10 -4 6 3 10 8 10 11 0 2 -4 4 -10 4 -5 0 -10
-5 -10 -11z"/>
<path d="M4635 4150 c3 -5 8 -10 11 -10 2 0 4 5 4 10 0 6 -5 10 -11 10 -5 0
-7 -4 -4 -10z"/>
<path d="M4555 4130 c-3 -5 -1 -10 4 -10 6 0 11 5 11 10 0 6 -2 10 -4 10 -3 0
-8 -4 -11 -10z"/>
<path d="M4610 4130 c0 -5 5 -10 10 -10 6 0 10 5 10 10 0 6 -4 10 -10 10 -5 0
-10 -4 -10 -10z"/>
<path d="M4656 4123 c-6 -14 -5 -15 5 -6 7 7 10 15 7 18 -3 3 -9 -2 -12 -12z"/>
<path d="M4772 4120 c-7 -11 -10 -20 -6 -20 7 0 34 27 34 34 0 13 -16 5 -28
-14z"/>
<path d="M6100 4130 c0 -5 5 -10 11 -10 5 0 7 5 4 10 -3 6 -8 10 -11 10 -2 0
-4 -4 -4 -10z"/>
<path d="M4580 4110 c0 -5 5 -10 10 -10 6 0 10 5 10 10 0 6 -4 10 -10 10 -5 0
-10 -4 -10 -10z"/>
<path d="M4725 4100 c3 -5 8 -10 11 -10 2 0 4 5 4 10 0 6 -5 10 -11 10 -5 0
-7 -4 -4 -10z"/>
<path d="M4909 4101 c8 -5 10 -14 6 -22 -6 -11 -5 -11 5 -2 14 12 6 33 -13 33
-8 0 -7 -3 2 -9z"/>
<path d="M4435 4080 c-3 -5 -1 -10 4 -10 6 0 11 5 11 10 0 6 -2 10 -4 10 -3 0
-8 -4 -11 -10z"/>
<path d="M4567 4084 c-7 -12 28 -54 45 -54 6 0 2 8 -9 18 -11 9 -22 24 -25 32
-3 9 -7 10 -11 4z"/>
<path d="M4945 4080 c-3 -5 -1 -10 4 -10 6 0 11 5 11 10 0 6 -2 10 -4 10 -3 0
-8 -4 -11 -10z"/>
<path d="M5600 4085 c0 -4 7 -19 15 -36 9 -16 13 -34 10 -39 -3 -6 -1 -10 4
-10 14 0 14 4 -1 51 -6 22 -15 39 -20 39 -4 0 -8 -2 -8 -5z"/>
<path d="M5576 4071 c-4 -6 -2 -11 4 -11 6 0 8 -4 5 -10 -3 -5 -1 -10 4 -10
13 0 14 10 2 29 -6 9 -11 10 -15 2z"/>
<path d="M5796 4064 c-11 -7 -17 -17 -13 -20 3 -4 14 1 23 10 21 22 15 28 -10
10z"/>
<path d="M5500 4060 c0 -5 5 -10 10 -10 6 0 10 5 10 10 0 6 -4 10 -10 10 -5 0
-10 -4 -10 -10z"/>
<path d="M5861 4054 c0 -11 3 -14 6 -6 3 7 2 16 -1 19 -3 4 -6 -2 -5 -13z"/>
<path d="M5930 4055 c-7 -9 -11 -17 -9 -20 3 -2 10 5 17 15 14 24 10 26 -8 5z"/>
<path d="M4685 4050 c3 -5 8 -10 11 -10 2 0 4 5 4 10 0 6 -5 10 -11 10 -5 0
-7 -4 -4 -10z"/>
<path d="M5046 4043 c-6 -14 -5 -15 5 -6 7 7 10 15 7 18 -3 3 -9 -2 -12 -12z"/>
<path d="M5075 4049 c-4 -6 -5 -12 -2 -15 2 -3 7 2 10 11 7 17 1 20 -8 4z"/>
<path d="M5136 4044 c-8 -21 -8 -24 5 -24 5 0 7 5 4 10 -3 6 -1 10 4 10 6 0
11 5 11 10 0 16 -17 12 -24 -6z"/>
<path d="M5166 4042 c-11 -18 36 -55 49 -39 6 7 22 13 37 13 21 1 25 -2 21
-15 -5 -13 -3 -14 7 -4 11 10 11 15 0 28 -11 13 -15 13 -22 3 -8 -10 -11 -10
-15 0 -7 18 -21 15 -28 -8 -4 -11 -10 -18 -15 -15 -5 3 -6 13 -3 22 4 10 2 14
-4 10 -6 -4 -13 -2 -15 5 -3 9 -6 9 -12 0z"/>
<path d="M5820 4039 c0 -5 5 -7 10 -4 6 3 10 8 10 11 0 2 -4 4 -10 4 -5 0 -10
-5 -10 -11z"/>
<path d="M5960 4039 c0 -5 5 -7 10 -4 6 3 10 8 10 11 0 2 -4 4 -10 4 -5 0 -10
-5 -10 -11z"/>
<path d="M6080 4041 c0 -6 4 -13 10 -16 6 -3 7 1 4 9 -7 18 -14 21 -14 7z"/>
<path d="M5515 4030 c-3 -5 -1 -10 4 -10 6 0 11 5 11 10 0 6 -2 10 -4 10 -3 0
-8 -4 -11 -10z"/>
<path d="M5681 4014 c-13 -13 -20 -24 -14 -24 11 0 53 34 53 44 0 11 -15 4
-39 -20z"/>
<path d="M4885 4020 c-3 -5 -1 -10 4 -10 6 0 11 5 11 10 0 6 -2 10 -4 10 -3 0
-8 -4 -11 -10z"/>
<path d="M5590 4015 c-7 -9 -8 -15 -2 -15 5 0 12 7 16 15 3 8 4 15 2 15 -2 0
-9 -7 -16 -15z"/>
<path d="M5750 4020 c0 -5 5 -10 10 -10 6 0 10 5 10 10 0 6 -4 10 -10 10 -5 0
-10 -4 -10 -10z"/>
<path d="M4985 4010 c-3 -5 -1 -10 4 -10 6 0 11 5 11 10 0 6 -2 10 -4 10 -3 0
-8 -4 -11 -10z"/>
<path d="M4551 4001 c-8 -5 -9 -11 -3 -15 5 -3 12 1 16 9 6 17 6 18 -13 6z"/>
<path d="M5720 4000 c0 -5 5 -10 10 -10 6 0 10 5 10 10 0 6 -4 10 -10 10 -5 0
-10 -4 -10 -10z"/>
<path d="M5445 3990 c-3 -5 -1 -10 4 -10 6 0 11 5 11 10 0 6 -2 10 -4 10 -3 0
-8 -4 -11 -10z"/>
<path d="M5505 3990 c-3 -5 -1 -10 4 -10 6 0 11 5 11 10 0 6 -2 10 -4 10 -3 0
-8 -4 -11 -10z"/>
<path d="M5700 3980 c0 -5 5 -10 11 -10 5 0 7 5 4 10 -3 6 -8 10 -11 10 -2 0
-4 -4 -4 -10z"/>
<path d="M5740 3970 c0 -5 5 -10 10 -10 6 0 10 5 10 10 0 6 -4 10 -10 10 -5 0
-10 -4 -10 -10z"/>
<path d="M5660 3960 c-9 -6 -10 -10 -3 -10 6 0 15 5 18 10 8 12 4 12 -15 0z"/>
<path d="M5795 3959 c-11 -16 -1 -19 13 -3 7 8 8 14 3 14 -5 0 -13 -5 -16 -11z"/>
<path d="M5450 3951 c0 -6 4 -12 8 -15 5 -3 9 1 9 9 0 8 -4 15 -9 15 -4 0 -8
-4 -8 -9z"/>
<path d="M4955 3940 c-3 -6 1 -7 9 -4 18 7 21 14 7 14 -6 0 -13 -4 -16 -10z"/>
<path d="M5495 3940 c-3 -5 -1 -10 4 -10 6 0 11 5 11 10 0 6 -2 10 -4 10 -3 0
-8 -4 -11 -10z"/>
<path d="M4800 3910 c-6 -11 -8 -20 -6 -20 3 0 10 9 16 20 6 11 8 20 6 20 -3
0 -10 -9 -16 -20z"/>
<path d="M5350 3919 c0 -5 5 -7 10 -4 6 3 10 8 10 11 0 2 -4 4 -10 4 -5 0 -10
-5 -10 -11z"/>
<path d="M4862 3900 c-8 -14 -9 -20 -1 -20 6 0 8 -7 5 -17 -4 -10 -4 -14 1
-10 6 7 15 67 9 67 -1 0 -7 -9 -14 -20z"/>
<path d="M5105 3850 c-9 -16 -13 -30 -11 -30 3 0 12 14 21 30 9 17 13 30 11
30 -3 0 -12 -13 -21 -30z"/>
<path d="M4890 3850 c-6 -11 -8 -20 -6 -20 3 0 10 9 16 20 6 11 8 20 6 20 -3
0 -10 -9 -16 -20z"/>
<path d="M4910 3840 c-6 -11 -8 -20 -6 -20 3 0 10 9 16 20 6 11 8 20 6 20 -3
0 -10 -9 -16 -20z"/>
<path d="M5451 3783 c-10 -26 -10 -27 4 -9 8 11 15 23 15 28 0 15 -7 8 -19
-19z"/>
<path d="M5266 3752 c-3 -5 1 -9 9 -9 8 0 12 4 9 9 -3 4 -7 8 -9 8 -2 0 -6 -4
-9 -8z"/>
<path d="M5788 4163 c-16 -19 -14 -43 4 -43 5 0 6 9 3 20 -5 14 -2 20 9 20 9
0 16 5 16 10 0 15 -15 12 -32 -7z"/>
<path d="M5093 2793 c15 -2 37 -2 50 0 12 2 0 4 -28 4 -27 0 -38 -2 -22 -4z"/>
</g>
</svg>
